<?xml version="1.0" encoding="UTF-8"?>
<svg version="1.1" xmlns="http://www.w3.org/2000/svg" width="659" height="211">
<path d="M0 0 C217.47 0 434.94 0 659 0 C659 69.63 659 139.26 659 211 C441.53 211 224.06 211 0 211 C0 141.37 0 71.74 0 0 Z " fill="#222832" transform="translate(0,0)"/>
<path d="M0 0 C0.7811618 -0.0127597 1.56232361 -0.02551941 2.36715698 -0.03866577 C3.20264069 -0.04089142 4.03812439 -0.04311707 4.89892578 -0.04541016 C5.76687775 -0.05206696 6.63482971 -0.05872375 7.52908325 -0.06558228 C9.36311732 -0.07569503 11.19718808 -0.08039972 13.03125 -0.08007812 C15.82760717 -0.08444667 18.62237945 -0.1207668 21.41845703 -0.15869141 C23.20360791 -0.16456091 24.98876625 -0.16852941 26.77392578 -0.17041016 C28.02107864 -0.19196671 28.02107864 -0.19196671 29.29342651 -0.21395874 C35.98063196 -0.16170493 39.38553643 1.89403075 44.31103516 6.46264648 C46.67520532 10.49447555 46.54416341 13.93984147 46.50048828 18.53662109 C46.50431519 19.42535416 46.50814209 20.31408722 46.51208496 21.22975159 C46.5148007 23.10492081 46.50746315 24.98012814 46.49072266 26.85522461 C46.46933283 29.71538404 46.49052192 32.5730245 46.51611328 35.43310547 C46.51346945 37.25928286 46.50834332 39.08545869 46.50048828 40.91162109 C46.50858521 41.76179306 46.51668213 42.61196503 46.52502441 43.48789978 C46.44040751 48.88530279 45.66260304 52.08928643 41.96923828 56.29052734 C37.04598013 60.59299566 33.08691426 60.88303383 26.84423828 60.82177734 C25.54655518 60.8275177 25.54655518 60.8275177 24.22265625 60.83337402 C22.40054149 60.83608599 20.57838732 60.828775 18.75634766 60.81201172 C15.97746459 60.79059076 13.20116655 60.81183657 10.42236328 60.83740234 C8.64631594 60.83475894 6.87027021 60.8296337 5.09423828 60.82177734 C4.26907715 60.82987427 3.44391602 60.83797119 2.59375 60.84631348 C-2.7358965 60.76027163 -5.87602047 59.92138358 -10.03076172 56.29052734 C-14.36612755 51.34158091 -14.64590219 47.26804819 -14.63232422 40.98193359 C-14.64089447 40.09698715 -14.64946472 39.21204071 -14.65829468 38.30027771 C-14.66974107 36.43532725 -14.67081136 34.57028755 -14.66210938 32.70532227 C-14.65578686 29.86432478 -14.70274337 27.02749492 -14.75341797 24.18701172 C-14.75796463 22.36865756 -14.75937063 20.55029228 -14.75732422 18.73193359 C-14.77574371 17.89005997 -14.79416321 17.04818634 -14.81314087 16.18080139 C-14.7272371 10.65764715 -13.47608906 7.7323839 -9.70834351 3.68516541 C-6.61685158 1.11508963 -4.01131814 0.04473369 0 0 Z " fill="#EED94E" transform="translate(27.03076171875,24.70947265625)"/>
<path d="M0 0 C1.29768311 -0.00574036 1.29768311 -0.00574036 2.62158203 -0.01159668 C4.44369679 -0.01430865 6.26585096 -0.00699766 8.08789062 0.00976562 C10.86677369 0.03118659 13.64307173 0.00994078 16.421875 -0.015625 C18.19792234 -0.0129816 19.97396807 -0.00785635 21.75 0 C22.57516113 -0.00809692 23.40032227 -0.01619385 24.25048828 -0.02453613 C30.89329243 0.08270534 34.32371001 2.16481682 39.21679688 6.70336914 C41.58096704 10.73519821 41.44992512 14.18056413 41.40625 18.77734375 C41.4100769 19.66607681 41.41390381 20.55480988 41.41784668 21.47047424 C41.42056242 23.34564347 41.41322487 25.2208508 41.39648438 27.09594727 C41.37509455 29.95610669 41.39628364 32.81374715 41.421875 35.67382812 C41.41923117 37.50000551 41.41410504 39.32618134 41.40625 41.15234375 C41.41434692 42.00251572 41.42244385 42.85268768 41.43078613 43.72862244 C41.34616922 49.12602545 40.56836475 52.33000909 36.875 56.53125 C31.95174185 60.83371831 27.99267598 61.12375649 21.75 61.0625 C20.45231689 61.06824036 20.45231689 61.06824036 19.12841797 61.07409668 C17.30630321 61.07680865 15.48414904 61.06949766 13.66210938 61.05273438 C10.88322631 61.03131341 8.10692827 61.05255922 5.328125 61.078125 C3.55207766 61.0754816 1.77603193 61.07035635 0 61.0625 C-0.82516113 61.07059692 -1.65032227 61.07869385 -2.50048828 61.08703613 C-7.83013479 61.00099428 -10.97025875 60.16210624 -15.125 56.53125 C-19.42746831 51.60799185 -19.71750649 47.64892598 -19.65625 41.40625 C-19.66199036 40.10856689 -19.66199036 40.10856689 -19.66784668 38.78466797 C-19.67055865 36.96255321 -19.66324766 35.14039904 -19.64648438 33.31835938 C-19.62506341 30.53947631 -19.64630922 27.76317827 -19.671875 24.984375 C-19.6692316 23.20832766 -19.66410635 21.43228193 -19.65625 19.65625 C-19.66434692 18.83108887 -19.67244385 18.00592773 -19.68078613 17.15576172 C-19.59474428 11.82611521 -18.75585624 8.68599125 -15.125 4.53125 C-10.20174185 0.22878169 -6.24267598 -0.06125649 0 0 Z " fill="#DF4E1E" transform="translate(243.125,121.46875)"/>
<path d="M0 0 C1.2707563 -0.00855011 1.2707563 -0.00855011 2.56718445 -0.01727295 C4.36012526 -0.02671702 6.15308338 -0.03325458 7.94604492 -0.03710938 C10.67853383 -0.04680163 13.41026613 -0.07782462 16.14257812 -0.109375 C17.8867143 -0.11590678 19.63085583 -0.12115657 21.375 -0.125 C22.18769852 -0.1373468 23.00039703 -0.1496936 23.83772278 -0.16241455 C28.76645589 -0.14322144 32.11103309 0.48719718 36.38671875 3.203125 C41.15778252 8.48997945 41.56432877 11.99062353 41.625 18.9375 C41.63307175 19.80828186 41.64114349 20.67906372 41.64945984 21.57623291 C41.66330382 23.42222094 41.67402457 25.2682346 41.68188477 27.11425781 C41.69906676 29.92823335 41.74294543 32.74102452 41.78710938 35.5546875 C41.79723915 37.3489497 41.80575436 39.14322189 41.8125 40.9375 C41.83000809 41.77520935 41.84751617 42.6129187 41.86555481 43.47601318 C41.84564869 48.87800583 40.95423512 51.90271622 37.38671875 56.203125 C32.57645153 60.43032953 27.93057089 60.38585675 21.7734375 60.44140625 C20.92626663 60.449478 20.07909576 60.45754974 19.20625305 60.46586609 C17.41332029 60.4796919 15.62036137 60.49042078 13.82739258 60.49829102 C11.09470369 60.51549603 8.36322749 60.55939349 5.63085938 60.60351562 C3.88672762 60.61364387 2.14258561 60.62215956 0.3984375 60.62890625 C-0.41426102 60.64641434 -1.22695953 60.66392242 -2.06428528 60.68196106 C-7.38446783 60.66176501 -10.46480554 59.82913026 -14.61328125 56.203125 C-18.9296463 51.26717091 -19.24020075 47.19857712 -19.25 40.9296875 C-19.26094193 40.04711273 -19.27188385 39.16453796 -19.28315735 38.25521851 C-19.29897188 36.39448869 -19.30423347 34.53364271 -19.29956055 32.67285156 C-19.30077512 29.84241207 -19.36056965 27.01714763 -19.42382812 24.1875 C-19.57004916 9.07129351 -19.57004916 9.07129351 -15.2578125 3.9765625 C-10.63881927 -0.15760457 -5.92878781 0.03077371 0 0 Z " fill="#7C12F5" transform="translate(383.61328125,121.796875)"/>
<path d="M0 0 C0.86795197 -0.00428513 1.73590393 -0.00857025 2.63015747 -0.01298523 C4.46420419 -0.01872132 6.29827366 -0.0192341 8.13232422 -0.01489258 C10.92845818 -0.01173777 13.72352842 -0.0351824 16.51953125 -0.06054688 C18.30468617 -0.06282056 20.08984392 -0.06352304 21.875 -0.0625 C22.70643524 -0.07170975 23.53787048 -0.08091949 24.39450073 -0.09040833 C30.61901921 -0.04117291 34.64353455 1.14294252 39.41210938 5.38305664 C41.79765426 9.58059004 41.64451177 13.23193685 41.6015625 17.984375 C41.6053894 18.91750015 41.60921631 19.85062531 41.61315918 20.81202698 C41.61587562 22.78135255 41.60853322 24.75071437 41.59179688 26.7199707 C41.57040743 29.7249451 41.59159504 32.72752217 41.6171875 35.73242188 C41.6145437 37.64974483 41.60941765 39.56706631 41.6015625 41.484375 C41.60965942 42.37829453 41.61775635 43.27221405 41.62609863 44.19322205 C41.54421268 49.67647424 40.9104599 53.07990197 37.0703125 57.30078125 C32.16600953 60.68276642 27.69315652 60.75482384 21.9453125 60.734375 C21.08019043 60.73961685 20.21506836 60.7448587 19.32373047 60.7502594 C17.50163848 60.75665916 15.67950507 60.7553692 13.85742188 60.74682617 C11.07867591 60.73830689 8.30198123 60.76711969 5.5234375 60.79882812 C3.74739645 60.8004402 1.97135177 60.79986249 0.1953125 60.796875 C-1.0424292 60.81372597 -1.0424292 60.81372597 -2.30517578 60.83091736 C-7.63133 60.76694335 -10.76999101 59.92693458 -14.9296875 56.30078125 C-18.73561501 51.87815253 -18.39718772 47.17647531 -18.3984375 41.6171875 C-18.40605103 40.68406235 -18.41366455 39.75093719 -18.42150879 38.78953552 C-18.43229202 36.82024811 -18.43517013 34.85090358 -18.43066406 32.8815918 C-18.42969177 29.87646708 -18.47133247 26.87389694 -18.515625 23.86914062 C-18.52083245 21.95182822 -18.52352019 20.03450698 -18.5234375 18.1171875 C-18.53983276 17.22326797 -18.55622803 16.32934845 -18.57312012 15.40834045 C-18.52637237 11.1668175 -18.3230451 8.21244696 -15.64257812 4.81225586 C-10.47856228 0.03163751 -6.82385203 -0.00744396 0 0 Z " fill="#0377BC" transform="translate(312.9296875,121.69921875)"/>
<path d="M0 0 C0.86795197 -0.00428513 1.73590393 -0.00857025 2.63015747 -0.01298523 C4.46420419 -0.01872132 6.29827366 -0.0192341 8.13232422 -0.01489258 C10.92845818 -0.01173777 13.72352842 -0.0351824 16.51953125 -0.06054688 C18.30468617 -0.06282056 20.08984392 -0.06352304 21.875 -0.0625 C22.70643524 -0.07170975 23.53787048 -0.08091949 24.39450073 -0.09040833 C30.61901921 -0.04117291 34.64353455 1.14294252 39.41210938 5.38305664 C41.79765426 9.58059004 41.64451177 13.23193685 41.6015625 17.984375 C41.6053894 18.91750015 41.60921631 19.85062531 41.61315918 20.81202698 C41.61587562 22.78135255 41.60853322 24.75071437 41.59179688 26.7199707 C41.57040743 29.7249451 41.59159504 32.72752217 41.6171875 35.73242188 C41.6145437 37.64974483 41.60941765 39.56706631 41.6015625 41.484375 C41.60965942 42.37829453 41.61775635 43.27221405 41.62609863 44.19322205 C41.54421268 49.67647424 40.9104599 53.07990197 37.0703125 57.30078125 C32.18025785 60.66617162 27.71157361 60.76812699 21.98046875 60.76953125 C21.11771835 60.77714478 20.25496796 60.7847583 19.36607361 60.79260254 C17.54819623 60.803369 15.73025717 60.80627074 13.91235352 60.80175781 C11.14428764 60.80078528 8.37899453 60.84244789 5.61132812 60.88671875 C3.8385474 60.89192642 2.06575712 60.89461393 0.29296875 60.89453125 C-0.5270311 60.91092651 -1.34703094 60.92732178 -2.19187927 60.94421387 C-7.32596275 60.88303747 -10.42807613 59.87534343 -14.52735901 56.76428223 C-17.36462214 53.80325177 -18.17781798 51.03012168 -18.23608398 46.99462891 C-18.25207138 46.15340485 -18.26805878 45.31218079 -18.28453064 44.44546509 C-18.28989334 43.54436005 -18.29525604 42.643255 -18.30078125 41.71484375 C-18.30980972 40.78030365 -18.3188382 39.84576355 -18.32814026 38.88290405 C-18.34263407 36.90764566 -18.35152734 34.93233936 -18.35522461 32.95703125 C-18.36711882 29.94318326 -18.41631058 26.93138467 -18.46679688 23.91796875 C-18.47626187 21.99610371 -18.48349654 20.07422614 -18.48828125 18.15234375 C-18.50781357 17.25528717 -18.52734589 16.35823059 -18.54747009 15.43399048 C-18.51697881 11.18203591 -18.33296923 8.21990528 -15.64477539 4.81005859 C-10.47704788 0.03405793 -6.82444223 -0.00744461 0 0 Z " fill="#EF3D30" transform="translate(523.9296875,24.69921875)"/>
<path d="M0 0 C0.86795197 -0.00428513 1.73590393 -0.00857025 2.63015747 -0.01298523 C4.46420419 -0.01872132 6.29827366 -0.0192341 8.13232422 -0.01489258 C10.92845818 -0.01173777 13.72352842 -0.0351824 16.51953125 -0.06054688 C18.30468617 -0.06282056 20.08984392 -0.06352304 21.875 -0.0625 C22.70643524 -0.07170975 23.53787048 -0.08091949 24.39450073 -0.09040833 C30.61901921 -0.04117291 34.64353455 1.14294252 39.41210938 5.38305664 C41.79765426 9.58059004 41.64451177 13.23193685 41.6015625 17.984375 C41.6053894 18.91750015 41.60921631 19.85062531 41.61315918 20.81202698 C41.61587562 22.78135255 41.60853322 24.75071437 41.59179688 26.7199707 C41.57040743 29.7249451 41.59159504 32.72752217 41.6171875 35.73242188 C41.6145437 37.64974483 41.60941765 39.56706631 41.6015625 41.484375 C41.60965942 42.37829453 41.61775635 43.27221405 41.62609863 44.19322205 C41.54421268 49.67647424 40.9104599 53.07990197 37.0703125 57.30078125 C32.16600953 60.68276642 27.69315652 60.75482384 21.9453125 60.734375 C21.08019043 60.73961685 20.21506836 60.7448587 19.32373047 60.7502594 C17.50163848 60.75665916 15.67950507 60.7553692 13.85742188 60.74682617 C11.07867591 60.73830689 8.30198123 60.76711969 5.5234375 60.79882812 C3.74739645 60.8004402 1.97135177 60.79986249 0.1953125 60.796875 C-1.0424292 60.81372597 -1.0424292 60.81372597 -2.30517578 60.83091736 C-7.63133 60.76694335 -10.76999101 59.92693458 -14.9296875 56.30078125 C-18.73561501 51.87815253 -18.39718772 47.17647531 -18.3984375 41.6171875 C-18.40605103 40.68406235 -18.41366455 39.75093719 -18.42150879 38.78953552 C-18.43229202 36.82024811 -18.43517013 34.85090358 -18.43066406 32.8815918 C-18.42969177 29.87646708 -18.47133247 26.87389694 -18.515625 23.86914062 C-18.52083245 21.95182822 -18.52352019 20.03450698 -18.5234375 18.1171875 C-18.53983276 17.22326797 -18.55622803 16.32934845 -18.57312012 15.40834045 C-18.52637237 11.1668175 -18.3230451 8.21244696 -15.64257812 4.81225586 C-10.47856228 0.03163751 -6.82385203 -0.00744396 0 0 Z " fill="#774CBC" transform="translate(312.9296875,24.69921875)"/>
<path d="M0 0 C1.29837044 -0.0099852 1.29837044 -0.0099852 2.62297058 -0.02017212 C4.45280843 -0.03028587 6.28268306 -0.03498953 8.11254883 -0.03466797 C10.89792465 -0.0390311 13.68170231 -0.07533517 16.46679688 -0.11328125 C18.24869253 -0.11915188 20.03059567 -0.12311962 21.8125 -0.125 C22.63877396 -0.13937103 23.46504791 -0.15374207 24.31636047 -0.16854858 C30.05713888 -0.12368585 33.44563781 0.91054979 38.10546875 4.3359375 C41.91875781 8.64434499 41.55743997 13.3289909 41.5390625 18.80078125 C41.54430435 19.71171036 41.5495462 20.62263947 41.5549469 21.56117249 C41.56135641 23.48339826 41.56004398 25.40566332 41.55151367 27.32788086 C41.54300681 30.26031733 41.57177446 33.19080282 41.60351562 36.12304688 C41.60512795 37.99479109 41.60454952 39.86653873 41.6015625 41.73828125 C41.61841347 43.04634987 41.61841347 43.04634987 41.63560486 44.38084412 C41.57375185 49.81570868 40.9003392 53.14659973 37.10546875 57.3359375 C32.20116578 60.71792267 27.72831277 60.78998009 21.98046875 60.76953125 C21.11534668 60.7747731 20.25022461 60.78001495 19.35888672 60.78541565 C17.53679473 60.79181541 15.71466132 60.79052545 13.89257812 60.78198242 C11.11383216 60.77346314 8.33713748 60.80227594 5.55859375 60.83398438 C3.7825527 60.83559645 2.00650802 60.83501874 0.23046875 60.83203125 C-1.00727295 60.84888222 -1.00727295 60.84888222 -2.27001953 60.86607361 C-7.59617375 60.8020996 -10.73483476 59.96209083 -14.89453125 56.3359375 C-18.70045876 51.91330878 -18.36203147 47.21163156 -18.36328125 41.65234375 C-18.37089478 40.7192186 -18.3785083 39.78609344 -18.38635254 38.82469177 C-18.39713577 36.85540436 -18.40001388 34.88605983 -18.39550781 32.91674805 C-18.39453552 29.91162333 -18.43617622 26.90905319 -18.48046875 23.90429688 C-18.4856762 21.98698447 -18.48836394 20.06966323 -18.48828125 18.15234375 C-18.50467651 17.25842422 -18.52107178 16.3645047 -18.53796387 15.4434967 C-18.49121612 11.20197375 -18.28788885 8.24760321 -15.60742188 4.84741211 C-10.46162982 0.08366455 -6.80095279 0.01818536 0 0 Z " fill="#017ACB" transform="translate(101.89453125,24.6640625)"/>
<path d="M0 0 C4.94201823 3.85339184 7.85927002 8.61671987 9.234375 14.7421875 C9.95237966 22.0419015 8.1770683 27.68243782 3.85546875 33.64453125 C2.69473784 35.04997466 1.47073794 36.40279432 0.234375 37.7421875 C-1.52905273 37.58789062 -1.52905273 37.58789062 -3.765625 36.7421875 C-5.64086914 34.34960938 -5.64086914 34.34960938 -7.55078125 31.2109375 C-8.59395508 29.53064453 -8.59395508 29.53064453 -9.65820312 27.81640625 C-10.38257789 26.62564872 -11.10587356 25.43423412 -11.828125 24.2421875 C-13.24648858 21.91271901 -14.6766349 19.59181388 -16.11328125 17.2734375 C-16.74242432 16.23767578 -17.37156738 15.20191406 -18.01977539 14.13476562 C-19.6079865 11.47253903 -19.6079865 11.47253903 -22.765625 10.7421875 C-23.095625 17.0121875 -23.425625 23.2821875 -23.765625 29.7421875 C-22.775625 29.7421875 -21.785625 29.7421875 -20.765625 29.7421875 C-20.765625 25.1221875 -20.765625 20.5021875 -20.765625 15.7421875 C-17.49765326 19.01015924 -15.30244673 21.7378625 -12.828125 25.5546875 C-9.89938099 30.02718069 -6.90970232 34.41908118 -3.765625 38.7421875 C-4.765625 40.7421875 -4.765625 40.7421875 -6.4921875 41.35546875 C-14.69862931 42.75140988 -22.20992147 42.09998519 -29.328125 37.6796875 C-34.61347589 33.61583992 -37.31612054 28.93622735 -38.24609375 22.328125 C-38.59858748 13.43004001 -37.12776343 8.47234753 -31.19140625 2.03515625 C-21.66983544 -7.08690809 -10.68587959 -6.93586594 0 0 Z " fill="#FAFAFA" transform="translate(268.765625,36.2578125)"/>
<path d="M0 0 C2.83670731 1.53812081 5.54221192 3.24675592 8.25 5 C8.9821875 5.4640625 9.714375 5.928125 10.46875 6.40625 C15.8067602 9.8067602 15.8067602 9.8067602 17 11 C19.48568057 31.13958589 19.48568057 31.13958589 15.0859375 37.97265625 C12.45290561 39.76197668 9.97631448 40.88491839 7 42 C5.38601533 42.98407529 3.78108304 43.9832189 2.1875 45 C-0.1794268 46.42104423 -1.47687496 47.01546631 -4.24609375 46.93359375 C-8.28929526 45.56291976 -11.66930571 43.35839481 -15.25 41.0625 C-15.9821875 40.60681641 -16.714375 40.15113281 -17.46875 39.68164062 C-22.86572233 36.26855535 -22.86572233 36.26855535 -24 34 C-24.37323917 30.42501783 -24.41711313 26.84176455 -24.5 23.25 C-24.55414062 22.26 -24.60828125 21.27 -24.6640625 20.25 C-24.79786236 13.10126485 -24.79786236 13.10126485 -22.62158203 10.09741211 C-20.82997893 8.52401391 -19.02670616 7.25293833 -17 6 C-15.96617187 5.28972656 -14.93234375 4.57945312 -13.8671875 3.84765625 C-12.38605469 2.96400391 -12.38605469 2.96400391 -10.875 2.0625 C-9.88242187 1.45535156 -8.88984375 0.84820312 -7.8671875 0.22265625 C-4.44195919 -1.23796563 -3.45791522 -1.31074368 0 0 Z " fill="#363A48" transform="translate(539,129)"/>
<path d="M0 0 C3.0625 0.875 3.0625 0.875 5.1875 2.5 C6.93672458 4.09130777 6.93672458 4.09130777 9 3.75 C11.20128377 2.89144128 11.20128377 2.89144128 13.5 1.25 C16.0625 -0.125 16.0625 -0.125 18.6875 0 C21.31970303 0.96975901 22.36065053 1.66600914 24.0625 3.875 C24.35546875 6.35546875 24.35546875 6.35546875 24.25 9.0625 C24.20939453 10.41408203 24.20939453 10.41408203 24.16796875 11.79296875 C24.13316406 12.48003906 24.09835938 13.16710938 24.0625 13.875 C24.62839844 14.09414063 25.19429687 14.31328125 25.77734375 14.5390625 C31.71991299 17.10825764 31.71991299 17.10825764 33.375 20.8125 C33.0625 23.875 33.0625 23.875 30.875 26.625 C28.57959542 28.46132366 26.67984402 29.64198997 24.0625 30.875 C24.10890625 31.47828125 24.1553125 32.0815625 24.203125 32.703125 C24.49543247 39.17564755 24.49543247 39.17564755 22.4375 42.5 C20.0625 43.875 20.0625 43.875 17.0625 43.8125 C14.0625 42.875 14.0625 42.875 12 41.1875 C11.360625 40.754375 10.72125 40.32125 10.0625 39.875 C6.89163833 40.72571899 4.806086 42.04594266 2.0625 43.875 C-4.50353774 43.30896226 -4.50353774 43.30896226 -5.9375 41.875 C-6.00994053 39.85535801 -6.02127188 37.83332876 -6 35.8125 C-5.99097656 34.70777344 -5.98195312 33.60304687 -5.97265625 32.46484375 C-5.96105469 31.61019531 -5.94945312 30.75554688 -5.9375 29.875 C-6.845 29.6275 -7.7525 29.38 -8.6875 29.125 C-12.11197337 27.80789486 -13.81061478 26.8526393 -15.9375 23.875 C-16 21.375 -16 21.375 -14.9375 18.875 C-12.15732907 16.24510858 -9.35593824 14.52955326 -5.9375 12.875 C-5.98970703 11.84439453 -5.98970703 11.84439453 -6.04296875 10.79296875 C-6.08357422 9.44138672 -6.08357422 9.44138672 -6.125 8.0625 C-6.15980469 7.16917969 -6.19460937 6.27585937 -6.23046875 5.35546875 C-5.9375 2.875 -5.9375 2.875 -4.609375 1.04296875 C-2.9375 -0.125 -2.9375 -0.125 0 0 Z " fill="#03C7EC" transform="translate(174.9375,33.125)"/>
<path d="M0 0 C3.7261111 1.57643162 7.32657895 3.43672698 10.9453125 5.24609375 C10.9453125 16.46609375 10.9453125 27.68609375 10.9453125 39.24609375 C7.3153125 41.22609375 3.6853125 43.20609375 -0.0546875 45.24609375 C-3.20154805 43.67266347 -4.74196265 42.80798373 -7.11328125 40.49609375 C-7.66435547 39.97015625 -8.21542969 39.44421875 -8.78320312 38.90234375 C-9.92051339 37.80012763 -11.05594013 36.6959646 -12.18945312 35.58984375 C-15.30678091 32.621653 -17.8321023 30.50892297 -22.0546875 29.24609375 C-22.9621875 30.09171875 -23.8696875 30.93734375 -24.8046875 31.80859375 C-27.72989978 34.23707187 -27.72989978 34.23707187 -30.3046875 34.30859375 C-32.52533863 32.96034128 -33.12947874 31.63621639 -34.0546875 29.24609375 C-32.0746875 27.26609375 -30.0946875 25.28609375 -28.0546875 23.24609375 C-29.28402765 19.55807331 -30.99328128 18.52252402 -34.0546875 16.24609375 C-33.7246875 14.92609375 -33.3946875 13.60609375 -33.0546875 12.24609375 C-31.0546875 11.43359375 -31.0546875 11.43359375 -28.0546875 11.24609375 C-26.01171875 12.3215332 -26.01171875 12.3215332 -23.8671875 13.734375 C-23.15175781 14.20012939 -22.43632812 14.66588379 -21.69921875 15.14575195 C-21.15652344 15.50886475 -20.61382812 15.87197754 -20.0546875 16.24609375 C-19.57112793 15.75616943 -19.08756836 15.26624512 -18.58935547 14.76147461 C-16.38705041 12.55048248 -14.15913207 10.3672027 -11.9296875 8.18359375 C-11.16914063 7.41208984 -10.40859375 6.64058594 -9.625 5.84570312 C-3.92333858 0.31607459 -3.92333858 0.31607459 0 0 Z " fill="#2486C6" transform="translate(477.0546875,129.75390625)"/>
<path d="M0 0 C5.23081155 0.78428759 8.50471352 5.46060676 12.07958984 9.09863281 C13.54765062 10.58594604 15.04271878 12.04156561 16.54248047 13.49682617 C17.93466797 14.89384766 17.93466797 14.89384766 19.35498047 16.3190918 C20.20817871 17.17269287 21.06137695 18.02629395 21.94042969 18.90576172 C23.67529297 21.40112305 23.67529297 21.40112305 23.71386719 23.91479492 C21.52852455 29.14646616 16.89702538 32.78904109 12.92529297 36.71362305 C12.01779297 37.6449707 11.11029297 38.57631836 10.17529297 39.53588867 C9.29357422 40.41567383 8.41185547 41.29545898 7.50341797 42.2019043 C6.69807617 43.00797119 5.89273438 43.81403809 5.06298828 44.64453125 C2.30373084 46.67447576 1.02342801 46.89897772 -2.32470703 46.40112305 C-3.85205078 45.14331055 -3.85205078 45.14331055 -5.26220703 43.27612305 C-7.66060797 40.28214604 -10.15643799 37.54467089 -12.92236328 34.89331055 C-13.56246338 34.2772998 -14.20256348 33.66128906 -14.86206055 33.02661133 C-16.16240937 31.78400906 -17.47144898 30.55043344 -18.78930664 29.32641602 C-19.38880127 28.74778809 -19.9882959 28.16916016 -20.60595703 27.57299805 C-21.15316406 27.05833984 -21.70037109 26.54368164 -22.26416016 26.01342773 C-23.32470703 24.40112305 -23.32470703 24.40112305 -23.1784668 22.4050293 C-22.21044769 20.13293869 -21.15167149 18.88361282 -19.38330078 17.16674805 C-18.8 16.59311523 -18.21669922 16.01948242 -17.61572266 15.4284668 C-17.0040625 14.84194336 -16.39240234 14.25541992 -15.76220703 13.65112305 C-15.14667969 13.04913086 -14.53115234 12.44713867 -13.89697266 11.8269043 C-12.37955891 10.34477924 -10.85300107 8.87202635 -9.32470703 7.40112305 C-5.97881124 8.96254108 -3.93394359 10.20402666 -2.21142578 13.58862305 C-1.14162795 16.9818144 -1.09508138 19.84724987 -1.13720703 23.40112305 C-1.14365234 24.59737305 -1.15009766 25.79362305 -1.15673828 27.02612305 C-1.30181485 29.94114994 -1.6540585 32.56830366 -2.32470703 35.40112305 C-0.67470703 35.40112305 0.97529297 35.40112305 2.67529297 35.40112305 C2.51158203 34.71663086 2.34787109 34.03213867 2.17919922 33.3269043 C1.61082263 30.02679524 1.5789853 26.93558236 1.61279297 23.58862305 C1.62181641 22.42717773 1.63083984 21.26573242 1.64013672 20.0690918 C1.65173828 19.18866211 1.66333984 18.30823242 1.67529297 17.40112305 C5.34647915 20.17675331 7.31141164 21.93751143 8.67529297 26.40112305 C9.99529297 26.07112305 11.31529297 25.74112305 12.67529297 25.40112305 C12.67529297 24.08112305 12.67529297 22.76112305 12.67529297 21.40112305 C11.93279297 21.15362305 11.19029297 20.90612305 10.42529297 20.65112305 C7.40271948 19.27722601 5.73552135 17.99548471 3.67529297 15.40112305 C3.67529297 14.08112305 3.67529297 12.76112305 3.67529297 11.40112305 C2.31404297 11.06081055 2.31404297 11.06081055 0.92529297 10.71362305 C-2.77359027 9.21984328 -4.10376361 7.64711728 -6.32470703 4.40112305 C-3.05620356 0.52734115 -3.05620356 0.52734115 0 0 Z " fill="#FEF8F8" transform="translate(535.32470703125,31.598876953125)"/>
<path d="M0 0 C3.60981331 2.78471312 6.81499152 5.74092156 10 9 C10.70253906 9.63421875 11.40507812 10.2684375 12.12890625 10.921875 C12.87011719 11.60765625 13.61132812 12.2934375 14.375 13 C15.08398438 13.639375 15.79296875 14.27875 16.5234375 14.9375 C18 17 18 17 17.875 19.578125 C16.65590427 22.95240783 14.6973124 24.68801794 12 27 C11.01 27.33 10.02 27.66 9 28 C8.731875 28.5775 8.46375 29.155 8.1875 29.75 C6.47344229 32.9976883 3.84891066 34.73249968 1 37 C0.01 37.99 -0.98 38.98 -2 40 C-5.3 35.38 -8.6 30.76 -12 26 C-8.82814551 31.62425361 -8.82814551 31.62425361 -5.25 36.8125 C-3 40 -3 40 -3 42 C-8.00067137 41.6251782 -10.51273903 39.02967208 -13.8125 35.5625 C-14.56563477 34.80743164 -14.56563477 34.80743164 -15.33398438 34.03710938 C-19 30.28131378 -19 30.28131378 -19 28 C-19.99 27.67 -20.98 27.34 -22 27 C-22 26.34 -22 25.68 -22 25 C-22.61875 24.690625 -23.2375 24.38125 -23.875 24.0625 C-28 22 -28 22 -28.9375 20.3125 C-29 18 -29 18 -26.6875 14.75 C-25.800625 13.8425 -24.91375 12.935 -24 12 C-23.34 12 -22.68 12 -22 12 C-22 11.34 -22 10.68 -22 10 C-19.8125 7.8125 -19.8125 7.8125 -17 6 C-14.375 6.1875 -14.375 6.1875 -12 7 C-11.01 7.33 -10.02 7.66 -9 8 C-9.48578543 11.12290635 -9.9986012 13.99580359 -11 17 C-9.68 15.02 -8.36 13.04 -7 11 C-0.25 11.875 -0.25 11.875 2 13 C2 12.34 2 11.68 2 11 C1.21625 10.855625 0.4325 10.71125 -0.375 10.5625 C-3 10 -3 10 -5 9 C-3.7508258 5.54074837 -2.32472205 2.85306797 0 0 Z " fill="#255861" transform="translate(189,133)"/>
<path d="M0 0 C12.54 0 25.08 0 38 0 C38 2.31 38 4.62 38 7 C37 8 37 8 34.31616211 8.11352539 C33.14835205 8.10828857 31.98054199 8.10305176 30.77734375 8.09765625 C29.51728516 8.09443359 28.25722656 8.09121094 26.95898438 8.08789062 C25.61848891 8.07953403 24.27799412 8.07106907 22.9375 8.0625 C21.59310058 8.0574866 20.2486994 8.05292342 18.90429688 8.04882812 C15.60282059 8.03699488 12.30143197 8.02050971 9 8 C9 10.31 9 12.62 9 15 C17.91 15 26.82 15 36 15 C35.67 22.59 35.34 30.18 35 38 C21.52884306 42.04134708 15.78679428 42.9065606 3 38 C3 34.04 3 30.08 3 26 C5.64 26 8.28 26 11 26 C11.33 27.98 11.66 29.96 12 32 C17.52967941 32.71033431 22.49983036 33.30267176 28 32 C28 29.03 28 26.06 28 23 C19.42 23 10.84 23 2 23 C1.34 15.41 0.68 7.82 0 0 Z " fill="#EBE2DF" transform="translate(235,131)"/>
<path d="M0 0 C12.21 0 24.42 0 37 0 C35.84966216 19.55574324 35.84966216 19.55574324 34.9375 28.5625 C34.84662109 29.48740234 34.75574219 30.41230469 34.66210938 31.36523438 C34.44435759 33.57713409 34.22370285 35.78869575 34 38 C33.07058594 38.30679688 32.14117187 38.61359375 31.18359375 38.9296875 C29.12898043 39.62044093 27.08674651 40.34975665 25.0625 41.125 C17.70064668 43.22838666 11.07542759 41.36255627 4 39 C2.18884044 37.18884044 2.61800552 34.38721773 2.4375 31.9375 C2.35371094 30.83277344 2.26992188 29.72804687 2.18359375 28.58984375 C2.09271484 27.30787109 2.09271484 27.30787109 2 26 C4.64 26 7.28 26 10 26 C10 27.98 10 29.96 10 32 C12.90040319 32.83057001 15.48572102 33.13532287 18.5 33.125 C19.2528125 33.12757813 20.005625 33.13015625 20.78125 33.1328125 C23.32656368 33.04878742 23.32656368 33.04878742 27 32 C27 29.03 27 26.06 27 23 C26.2479126 23.00523682 25.4958252 23.01047363 24.72094727 23.01586914 C21.33480658 23.03657227 17.94867916 23.04963877 14.5625 23.0625 C12.78649414 23.07506836 12.78649414 23.07506836 10.97460938 23.08789062 C9.84990234 23.09111328 8.72519531 23.09433594 7.56640625 23.09765625 C6.00321655 23.10551147 6.00321655 23.10551147 4.40844727 23.11352539 C2 23 2 23 1 22 C1 19.69 1 17.38 1 15 C10.24 15 19.48 15 29 15 C29 12.69 29 10.38 29 8 C19.43 8 9.86 8 0 8 C0 5.36 0 2.72 0 0 Z " fill="#FBFDFE" transform="translate(306,131)"/>
<path d="M0 0 C4.87556154 3.32065273 8.89338737 6.85079137 10.58984375 12.63671875 C11.85398107 19.92055759 12.42610559 26.63764178 8.3125 33.0625 C4.22333139 38.29127297 0.45599778 41.1983262 -6 43 C-6.33 39.04 -6.66 35.08 -7 31 C-4.94921875 29.79557292 -2.8984375 28.59114583 -0.84765625 27.38671875 C1.29977412 26.04889746 1.29977412 26.04889746 2 23 C2.3053818 18.345203 2.3053818 18.345203 1 14 C0.95977609 11.6670134 0.95679753 9.33293334 1 7 C-0.2684375 7.48726562 -0.2684375 7.48726562 -1.5625 7.984375 C-5.21718329 9.06416779 -8.19796614 9.26667559 -12 9.25 C-13.7634375 9.25773438 -13.7634375 9.25773438 -15.5625 9.265625 C-19.01937245 8.99850304 -21.77517473 8.23880483 -25 7 C-24.979375 8.11375 -24.95875 9.2275 -24.9375 10.375 C-25 14 -25 14 -26 16 C-26.3744411 20.96134453 -26.23898133 24.11322241 -23 28 C-19.93319201 29.82629794 -19.93319201 29.82629794 -17 31 C-17.66 32.32 -18.32 33.64 -19 35 C-21.375 34.6875 -21.375 34.6875 -24 34 C-24.66 33.01 -25.32 32.02 -26 31 C-26.495 31.495 -26.495 31.495 -27 32 C-23.22406041 36.28070998 -23.22406041 36.28070998 -18 38 C-18 39.65 -18 41.3 -18 43 C-24.94481891 41.30614173 -28.9868919 37.42605335 -33.4375 32.0625 C-36.40048064 26.29112902 -35.77221503 19.24545841 -35 13 C-32.61444389 6.1388873 -26.79256689 1.25503978 -20.6875 -2.375 C-13.55958168 -4.03265542 -6.42629688 -3.63169483 0 0 Z " fill="#F8F9F9" transform="translate(55,132)"/>
<path d="M0 0 C2.69265075 3.24003782 4.9667215 6.4583013 7.0234375 10.1328125 C7.84328125 11.59074219 7.84328125 11.59074219 8.6796875 13.078125 C9.23914063 14.08359375 9.79859375 15.0890625 10.375 16.125 C11.20257813 17.59839844 11.20257813 17.59839844 12.046875 19.1015625 C15.74963923 25.70743296 19.37321981 32.35090298 23 39 C8.15 39 -6.7 39 -22 39 C-20.48562699 35.21406747 -18.99430006 32.08810968 -16.953125 28.61328125 C-16.0559375 27.0809082 -16.0559375 27.0809082 -15.140625 25.51757812 C-14.51671875 24.45990234 -13.8928125 23.40222656 -13.25 22.3125 C-12.6415625 21.27416016 -12.033125 20.23582031 -11.40625 19.16601562 C-7.64330287 12.75372859 -3.83808458 6.36757015 0 0 Z " fill="#F6F6F6" transform="translate(113,130)"/>
<path d="M0 0 C3.89684863 1.18867901 7.13216999 2.56538912 10.5625 4.75 C13.82773541 6.70071362 13.82773541 6.70071362 17.5 6.625 C18.325 6.08875 19.15 5.5525 20 5 C21.53398382 4.09107365 23.07642301 3.19633413 24.625 2.3125 C25.38039063 1.85488281 26.13578125 1.39726563 26.9140625 0.92578125 C29 0 29 0 32 1 C32 8.26 32 15.52 32 23 C28.04 24.98 28.04 24.98 24 27 C24.99 27.99 25.98 28.98 27 30 C30.49723354 29.7668511 33.06196879 27.77828205 36 26 C36.66 26 37.32 26 38 26 C37.94779297 25.06027344 37.94779297 25.06027344 37.89453125 24.1015625 C37.86746094 23.28429687 37.84039062 22.46703125 37.8125 21.625 C37.76029297 20.40683594 37.76029297 20.40683594 37.70703125 19.1640625 C37.80371094 18.44992188 37.90039062 17.73578125 38 17 C41 15 41 15 44 15 C44.5296182 19.77310229 44.78423371 24.24690782 44 29 C41.45019867 32.01290627 38.55696353 33.3951747 35 35 C34.071875 35.639375 33.14375 36.27875 32.1875 36.9375 C29.46494461 38.25988405 28.82190263 37.93560408 26 37 C22.33404216 35.39475483 19.01639957 33.64923483 16 31 C15.08786301 27.93939576 15.44427316 26.22321569 16 23 C22.75 19 22.75 19 25 19 C25 16.36 25 13.72 25 11 C24.46890625 11.30035156 23.9378125 11.60070313 23.390625 11.91015625 C22.33101563 12.48056641 22.33101563 12.48056641 21.25 13.0625 C20.55390625 13.44535156 19.8578125 13.82820313 19.140625 14.22265625 C16.57434848 15.15457054 15.52778671 14.93772733 13 14 C10.98473831 13.03112419 8.98166034 12.0358679 7 11 C7 15.29 7 19.58 7 24 C1 23 1 23 0 22 C-0.08700342 20.36527118 -0.10701063 18.72685945 -0.09765625 17.08984375 C-0.09443359 16.10048828 -0.09121094 15.11113281 -0.08789062 14.09179688 C-0.07951172 13.05087891 -0.07113281 12.00996094 -0.0625 10.9375 C-0.05798828 9.89271484 -0.05347656 8.84792969 -0.04882812 7.77148438 C-0.03699913 5.1809334 -0.02051689 2.59049441 0 0 Z " fill="#017AF4" transform="translate(443,36)"/>
<path d="M0 0 C2.866875 -0.0825 5.73375 -0.165 8.6875 -0.25 C9.58170654 -0.28641602 10.47591309 -0.32283203 11.3972168 -0.36035156 C15.37220707 -0.41562787 17.53624013 -0.2683988 21.05078125 1.765625 C23.67801689 4.77720573 23.60315198 6.27220429 23.375 10.09375 C22.87402011 12.64039777 21.82123981 14.17876019 20 16 C20.639375 16.309375 21.27875 16.61875 21.9375 16.9375 C24 18 24 18 25 19 C25.66014235 24.65836299 25.66014235 24.65836299 25 27 C22.3711257 29.99529762 20.68332865 31.70694869 16.7253418 32.39599609 C14.16864625 32.49161605 11.68119943 32.43664068 9.125 32.3125 C6.11375 32.209375 3.1025 32.10625 0 32 C0 21.44 0 10.88 0 0 Z " fill="#EEE2FB" transform="translate(382,136)"/>
<path d="M0 0 C1.32 0.66 2.64 1.32 4 2 C5.6280724 23.46300374 5.6280724 23.46300374 2.08984375 28.9765625 C-0.5448939 30.76020251 -3.0252402 31.88550085 -6 33 C-7.61398467 33.98407529 -9.21891696 34.9832189 -10.8125 36 C-13.4752681 37.59866002 -14.56774406 38.04003528 -17.69921875 37.75 C-18.45847656 37.5025 -19.21773437 37.255 -20 37 C-20.33 36.34 -20.66 35.68 -21 35 C-19.68 35.33 -18.36 35.66 -17 36 C-17.0628418 35.09290283 -17.0628418 35.09290283 -17.12695312 34.16748047 C-17.29414769 31.40400833 -17.39753342 28.64159762 -17.5 25.875 C-17.56703125 24.92367187 -17.6340625 23.97234375 -17.703125 22.9921875 C-17.8962571 16.03943175 -17.8962571 16.03943175 -15.37695312 13.11767578 C-13.32078634 11.5687422 -11.23727247 10.2702368 -9 9 C-8.0203125 8.30132812 -7.040625 7.60265625 -6.03125 6.8828125 C-4.77828125 6.01269531 -4.77828125 6.01269531 -3.5 5.125 C-2.6440625 4.52945313 -1.788125 3.93390625 -0.90625 3.3203125 C0.03734375 2.66675781 0.03734375 2.66675781 1 2 C0.67 1.34 0.34 0.68 0 0 Z " fill="#F3F4F4" transform="translate(552,138)"/>
<path d="M0 0 C3.0625 0.875 3.0625 0.875 5.1875 2.5 C6.93672458 4.09130777 6.93672458 4.09130777 9 3.75 C11.20128377 2.89144128 11.20128377 2.89144128 13.5 1.25 C16.0625 -0.125 16.0625 -0.125 18.6875 0 C22.5625 1.42763158 22.5625 1.42763158 24.0625 3.875 C24.30963438 6.59347813 24.19729526 9.1341631 24.0625 11.875 C20.58924819 13.0327506 17.70182552 12.94366652 14.0625 12.875 C14.0625 12.215 14.0625 11.555 14.0625 10.875 C13.4025 10.875 12.7425 10.875 12.0625 10.875 C12.0625 11.535 12.0625 12.195 12.0625 12.875 C11.45921875 12.86339844 10.8559375 12.85179687 10.234375 12.83984375 C9.43515625 12.83082031 8.6359375 12.82179688 7.8125 12.8125 C7.02359375 12.80089844 6.2346875 12.78929687 5.421875 12.77734375 C3.15558998 12.87114694 1.2336105 13.24258937 -0.9375 13.875 C-0.2775 14.205 0.3825 14.535 1.0625 14.875 C0.4025 16.195 -0.2575 17.515 -0.9375 18.875 C-1.2675 18.875 -1.5975 18.875 -1.9375 18.875 C-1.9375 20.525 -1.9375 22.175 -1.9375 23.875 C-1.2775 24.205 -0.6175 24.535 0.0625 24.875 C0.6875 26.9375 0.6875 26.9375 1.0625 28.875 C-0.2575 28.875 -1.5775 28.875 -2.9375 28.875 C-3.2675 28.215 -3.5975 27.555 -3.9375 26.875 C-7.05535113 27.52144661 -7.05535113 27.52144661 -7.9375 29.875 C-13.6875 26.125 -13.6875 26.125 -15.9375 23.875 C-15.875 21.5 -15.875 21.5 -14.9375 18.875 C-12.15732907 16.24510858 -9.35593824 14.52955326 -5.9375 12.875 C-5.98970703 11.84439453 -5.98970703 11.84439453 -6.04296875 10.79296875 C-6.08357422 9.44138672 -6.08357422 9.44138672 -6.125 8.0625 C-6.15980469 7.16917969 -6.19460937 6.27585937 -6.23046875 5.35546875 C-5.9375 2.875 -5.9375 2.875 -4.609375 1.04296875 C-2.9375 -0.125 -2.9375 -0.125 0 0 Z " fill="#08ADCF" transform="translate(174.9375,33.125)"/>
<path d="M0 0 C3.60981331 2.78471312 6.81499152 5.74092156 10 9 C10.70253906 9.63421875 11.40507812 10.2684375 12.12890625 10.921875 C12.87011719 11.60765625 13.61132812 12.2934375 14.375 13 C15.08398438 13.639375 15.79296875 14.27875 16.5234375 14.9375 C18 17 18 17 17.875 19.578125 C16.65590427 22.95240783 14.6973124 24.68801794 12 27 C11.01 27.33 10.02 27.66 9 28 C8.731875 28.5775 8.46375 29.155 8.1875 29.75 C6.44866056 33.04464314 3.92354664 34.71200698 1 37 C0.67 33.7 0.34 30.4 0 27 C-4.29 26.01 -8.58 25.02 -13 24 C-13 23.01 -13 22.02 -13 21 C-12.34 21 -11.68 21 -11 21 C-11 20.34 -11 19.68 -11 19 C-9.71802734 18.51080078 -9.71802734 18.51080078 -8.41015625 18.01171875 C-7.30542969 17.57472656 -6.20070312 17.13773438 -5.0625 16.6875 C-3.96035156 16.25824219 -2.85820312 15.82898438 -1.72265625 15.38671875 C1.30860265 14.24391139 1.30860265 14.24391139 2 11 C1.21625 10.855625 0.4325 10.71125 -0.375 10.5625 C-3 10 -3 10 -5 9 C-3.7508258 5.54074837 -2.32472205 2.85306797 0 0 Z " fill="#294655" transform="translate(189,133)"/>
<path d="M0 0 C5.61 0 11.22 0 17 0 C16.67 7.59 16.34 15.18 16 23 C2.52884306 27.04134708 -3.21320572 27.9065606 -16 23 C-16 19.04 -16 15.08 -16 11 C-13.36 11 -10.72 11 -8 11 C-7.67 12.98 -7.34 14.96 -7 17 C-1.47032059 17.71033431 3.49983036 18.30267176 9 17 C9 13.7 9 10.4 9 7 C6.03 7 3.06 7 0 7 C0 4.69 0 2.38 0 0 Z " fill="#FEFBFA" transform="translate(254,146)"/>
<path d="M0 0 C6 2 6 2 12 5 C12 16.22 12 27.44 12 39 C3 44 3 44 1 44 C0.67 29.48 0.34 14.96 0 0 Z " fill="#3B98D3" transform="translate(476,130)"/>
<path d="M0 0 C0.99773438 -0.01546875 1.99546875 -0.0309375 3.0234375 -0.046875 C10.24332828 -0.00816245 10.24332828 -0.00816245 13.65234375 2.28125 C15.76069105 5.7523841 15.91598135 8.57092212 15 12.5 C12.9375 15.0625 12.9375 15.0625 10 16.5 C3.78947368 16.28947368 3.78947368 16.28947368 1 13.5 C0.67 14.49 0.34 15.48 0 16.5 C-9.89914663 17.11442979 -9.89914663 17.11442979 -13.6875 15 C-15.49416915 11.55872543 -16.00781873 8.29414109 -15 4.5 C-11.6039431 -1.10744278 -5.8379062 -0.09051017 0 0 Z " fill="#A158FE" transform="translate(606,143.5)"/>
<path d="M0 0 C1.05960938 -0.00386719 2.11921875 -0.00773438 3.2109375 -0.01171875 C4.86996094 0.00568359 4.86996094 0.00568359 6.5625 0.0234375 C8.22152344 0.00603516 8.22152344 0.00603516 9.9140625 -0.01171875 C10.97367188 -0.00785156 12.03328125 -0.00398437 13.125 0 C14.58099609 0.00507568 14.58099609 0.00507568 16.06640625 0.01025391 C18.5625 0.3984375 18.5625 0.3984375 20.375 1.67724609 C22.04755991 4.10149513 21.97540699 6.48501941 22.05859375 9.36328125 C21.27157271 12.59192664 20.35620252 13.5318668 17.5625 15.3984375 C13.88797011 15.99652711 10.27758705 15.95603575 6.5625 15.8984375 C5.56476562 15.91390625 4.56703125 15.929375 3.5390625 15.9453125 C-3.67690006 15.90662101 -3.67690006 15.90662101 -7.09765625 13.62109375 C-9.32942448 9.918831 -8.91310248 7.67885979 -8.4375 3.3984375 C-6.11498583 0.03212893 -3.93327515 0.01371162 0 0 Z " fill="#EE4D1E" transform="translate(599.4375,128.6015625)"/>
<path d="M0 0 C0.99 0.33 1.98 0.66 3 1 C3 11.23 3 21.46 3 32 C-4.875 27.5 -4.875 27.5 -7.52734375 25.421875 C-8.09130859 24.98359375 -8.65527344 24.5453125 -9.23632812 24.09375 C-9.79771484 23.6503125 -10.35910156 23.206875 -10.9375 22.75 C-11.52595703 22.29109375 -12.11441406 21.8321875 -12.72070312 21.359375 C-14.15028342 20.24360502 -15.57560423 19.12238102 -17 18 C-15.61917102 14.85243351 -14.05200845 12.86116028 -11.5234375 10.546875 C-10.853125 9.928125 -10.1828125 9.309375 -9.4921875 8.671875 C-8.79351562 8.03765625 -8.09484375 7.4034375 -7.375 6.75 C-6.66859375 6.1003125 -5.9621875 5.450625 -5.234375 4.78125 C-3.49427822 3.18224215 -1.74943338 1.58877761 0 0 Z " fill="#0974B5" transform="translate(474,130)"/>
<path d="M0 0 C2.4375 1.5 2.4375 1.5 4 3 C3.34 4.32 2.68 5.64 2 7 C-0.64 6.67 -3.28 6.34 -6 6 C-4.61470538 9.4488064 -3.38628495 10.64350033 0 12.125 C2.56720838 13.2670302 3.98199302 13.98199302 6 16 C6.57105775 23.19532771 6.57105775 23.19532771 4.625 25.9375 C0.58053574 28.5819574 -3.27052864 28.61156957 -8 28 C-11.0625 26.125 -11.0625 26.125 -13 24 C-13 23.34 -13 22.68 -13 22 C-11.35 21.34 -9.7 20.68 -8 20 C-7.34 20.66 -6.68 21.32 -6 22 C-4.01178687 22.39764263 -2.01055661 22.73775349 0 23 C0 21.35 0 19.7 0 18 C-0.886875 17.7525 -1.77375 17.505 -2.6875 17.25 C-6.29148795 15.89000455 -8.42469354 14.87828369 -11 12 C-11.66256474 9.19994381 -11.6095764 6.80635174 -11 4 C-8.14969659 -0.56048545 -5.12186168 -0.64023271 0 0 Z " fill="#3D3C31" transform="translate(62,52)"/>
<path d="M0 0 C2.0625 2 2.0625 2 3 4 C-1.43076923 6.09230769 -1.43076923 6.09230769 -4.3125 5.625 C-4.869375 5.41875 -5.42625 5.2125 -6 5 C-6.33 6.32 -6.66 7.64 -7 9 C-6.113125 9.2475 -5.22625 9.495 -4.3125 9.75 C-0.74509145 11.09619191 1.3786556 12.22886449 4 15 C5.0625 18.5 5.0625 18.5 5 22 C3.15863826 24.41281883 1.69698174 25.65150913 -1 27 C-8.12408759 27.58394161 -8.12408759 27.58394161 -12 25 C-12.66 24.34 -13.32 23.68 -14 23 C-13.34 21.68 -12.68 20.36 -12 19 C-11.46375 19.33 -10.9275 19.66 -10.375 20 C-7.4608939 21.22699204 -5.13132292 21.14233286 -2 21 C-2.20037767 19.05334084 -2.20037767 19.05334084 -3 17 C-4.77765953 15.76292223 -4.77765953 15.76292223 -6.9375 14.9375 C-10.23258319 13.54411636 -10.90387694 13.14418459 -13 10 C-13.44710264 6.497696 -13.40404695 4.66755584 -11.5625 1.625 C-7.82032984 -0.74808351 -4.31694315 -0.85030698 0 0 Z " fill="#F2F8FC" transform="translate(134,53)"/>
<path d="M0 0 C6.93 0 13.86 0 21 0 C21 1.65 21 3.3 21 5 C18.36 5 15.72 5 13 5 C13 12.26 13 19.52 13 27 C11.02 27 9.04 27 7 27 C7 19.74 7 12.48 7 5 C4.69 5 2.38 5 0 5 C0 3.35 0 1.7 0 0 Z " fill="#EDF5FB" transform="translate(97,53)"/>
<path d="M0 0 C1.98 0 3.96 0 6 0 C6.08741124 3.56234428 6.14052896 7.12441108 6.1875 10.6875 C6.21263672 11.69490234 6.23777344 12.70230469 6.26367188 13.74023438 C6.35673244 23.13935131 6.35673244 23.13935131 3 27 C-0.17746491 28.58873246 -3.54012202 28.41026221 -7 28 C-9.5 26.5 -9.5 26.5 -11 25 C-10.34 23.68 -9.68 22.36 -9 21 C-6.36 21.33 -3.72 21.66 -1 22 C-0.67 14.74 -0.34 7.48 0 0 Z " fill="#3F3E31" transform="translate(40,52)"/>
<path d="M0 0 C2.5625 2.625 2.5625 2.625 4 6 C3.93493828 9.25308624 3.25246181 11.4004032 2 14.375 C-1.26230198 17.02562036 -4.95888676 16.30498968 -9 16 C-13.15419297 9.8908927 -13.15419297 9.8908927 -12.4375 5.75 C-9.54761911 0.22153222 -6.44426816 -1.59165659 0 0 Z " fill="#213646" transform="translate(188,47)"/>
<path d="M0 0 C11.45703422 -0.36958175 11.45703422 -0.36958175 13.859375 1.265625 C15.84955291 4.29178594 15.58026372 7.566773 15 11 C13.6875 13.5 13.6875 13.5 11 15 C7.26593557 15.32236527 3.76274489 15.17917833 0 15 C0 10.05 0 5.1 0 0 Z " fill="#FC7161" transform="translate(606,129)"/>
<path d="M0 0 C1.08667969 0.02707031 2.17335938 0.05414063 3.29296875 0.08203125 C4.54013672 0.13423828 4.54013672 0.13423828 5.8125 0.1875 C6.42266949 8.91631356 6.42266949 8.91631356 4.3125 13.3125 C0.58331939 16.10938546 -1.58616578 15.77179641 -6.1875 15.1875 C-8.38574594 13.59240091 -9.08941773 12.71829814 -9.5859375 10.03125 C-9.57820312 9.2578125 -9.57046875 8.484375 -9.5625 7.6875 C-9.57023438 6.9140625 -9.57796875 6.140625 -9.5859375 5.34375 C-9.1875 3.1875 -9.1875 3.1875 -8.05078125 1.41796875 C-5.34196203 -0.37087413 -3.2075417 -0.10346909 0 0 Z " fill="#0ACB81" transform="translate(600.1875,159.8125)"/>
<path d="M0 0 C2.9375 0.5625 2.9375 0.5625 5.3125 2.0625 C7.28433501 5.09609233 7.58302934 7.08181016 7.3828125 10.65234375 C6.9375 12.5625 6.9375 12.5625 4.875 15.125 C1.02588451 17.00860971 -0.98670151 16.770144 -5.0625 15.5625 C-7.61328958 13.34084456 -7.99582671 11.95420557 -8.5625 8.625 C-7.72746421 3.51040581 -5.079319 0.93293614 0 0 Z " fill="#1AB5F5" transform="translate(614.0625,143.4375)"/>
<path d="M0 0 C3.60981331 2.78471312 6.81499152 5.74092156 10 9 C10.70253906 9.64582031 11.40507812 10.29164063 12.12890625 10.95703125 C12.87011719 11.65183594 13.61132812 12.34664062 14.375 13.0625 C15.43847656 14.03896484 15.43847656 14.03896484 16.5234375 15.03515625 C18 17 18 17 17.7265625 19.24609375 C17.36691406 20.11427734 17.36691406 20.11427734 17 21 C17 20.34 17 19.68 17 19 C16.319375 18.87625 15.63875 18.7525 14.9375 18.625 C11.5722588 17.90899123 8.29986575 16.97054875 5 16 C4.34 17.32 3.68 18.64 3 20 C2.67 18.68 2.34 17.36 2 16 C1.22914063 16.3609375 0.45828125 16.721875 -0.3359375 17.09375 C-1.33882812 17.5578125 -2.34171875 18.021875 -3.375 18.5 C-4.37273437 18.9640625 -5.37046875 19.428125 -6.3984375 19.90625 C-9 21 -9 21 -11 21 C-11 20.34 -11 19.68 -11 19 C-9.71802734 18.51080078 -9.71802734 18.51080078 -8.41015625 18.01171875 C-7.30542969 17.57472656 -6.20070312 17.13773438 -5.0625 16.6875 C-3.96035156 16.25824219 -2.85820312 15.82898438 -1.72265625 15.38671875 C1.30860265 14.24391139 1.30860265 14.24391139 2 11 C1.21625 10.855625 0.4325 10.71125 -0.375 10.5625 C-3 10 -3 10 -5 9 C-3.7508258 5.54074837 -2.32472205 2.85306797 0 0 Z " fill="#283C4B" transform="translate(189,133)"/>
<path d="M0 0 C3.14344435 1.74635797 5.46862726 3.46862726 8 6 C12.65194714 6.34216235 12.65194714 6.34216235 17 5 C15.74334744 8.87467873 14.68812681 11.10609704 11 13 C5.97491528 13.54819106 3.0460664 13.0345498 -1 10 C-1.45375 9.46375 -1.9075 8.9275 -2.375 8.375 C-5.00773634 6.14730002 -7.6442107 6.17977443 -11 6 C-11.99 6.66 -12.98 7.32 -14 8 C-13.12269491 5.29497597 -12.28331029 3.31599994 -10.375 1.1875 C-6.92899504 -0.53550248 -3.72756872 -0.66666133 0 0 Z " fill="#21B2B1" transform="translate(388,55)"/>
<path d="M0 0 C9.10183691 0.17202785 17.08210164 1.34251989 23.91796875 7.81640625 C26.94065881 11.25552391 28.89735149 13.63990718 29.25 18.3125 C28.91530952 23.2491846 27.62063741 25.57580349 23.9375 28.8125 C19.71231523 30.52055342 15.50646653 30.61415562 11 30 C10.34 29.34 9.68 28.68 9 28 C10.69302364 26.30697636 12.99686549 26.7948473 15.3125 26.6875 C18.79790316 26.38422466 20.66634891 26.20174252 23.6875 24.375 C25.58231345 20.94628994 25.59965156 18.86442119 25 15 C21.75780999 9.83275967 17.7986758 6.92921723 12 5 C8.5998071 4.71665059 5.97056679 4.73768465 2.6875 5.625 C2.130625 5.74875 1.57375 5.8725 1 6 C0.34 5.34 -0.32 4.68 -1 4 C-0.625 1.875 -0.625 1.875 0 0 Z " fill="#F2EDF8" transform="translate(319,47)"/>
<path d="M0 0 C4.54420805 1.90222662 6.68150165 4.70648454 9 9 C9.25 11.875 9.25 11.875 9 14 C8.01 13.67 7.02 13.34 6 13 C4.94952356 10.68895182 3.94992562 8.35416349 3 6 C1.00630631 3.55785778 1.00630631 3.55785778 -2.9375 3.8125 C-5.67636155 3.83809684 -7.34007532 4.11335844 -10 5 C-12.22005373 8.99757183 -12.24010837 12.61981075 -12.1875 17.125 C-12.18105469 18.34445313 -12.17460937 19.56390625 -12.16796875 20.8203125 C-12.14001516 24.02285872 -12.14001516 24.02285872 -11 27 C-8.99983534 28.20882096 -8.99983534 28.20882096 -7 29 C-7 30.65 -7 32.3 -7 34 C-9.475 34.495 -9.475 34.495 -12 35 C-16.3582891 26.55581487 -17.44454622 18.05559351 -15.52734375 8.69140625 C-12.94952416 1.51364513 -7.18860046 -0.91491279 0 0 Z " fill="#F1EDF8" transform="translate(327,33)"/>
<path d="M0 0 C2.98682029 1.69838801 5.43282474 3.46941669 7.9375 5.8125 C11.0798701 7.62174339 13.56905573 6.72577667 17 6 C15.75023244 9.65316671 15.32901247 10.78065836 12 13 C8.91201284 13.62238501 6.08882805 13.61983172 3 13 C1.02259677 11.60035656 -0.58200066 10.04259842 -2.30078125 8.33984375 C-4.14393596 6.64509979 -4.14393596 6.64509979 -7.8125 6.5625 C-10.88959705 6.81086709 -10.88959705 6.81086709 -13 8 C-12.68151851 5.02750614 -11.96374181 3.96160897 -9.875 1.75 C-6.20572955 -0.48346897 -4.23724719 -0.59470136 0 0 Z " fill="#25B0B3" transform="translate(398,42)"/>
<path d="M0 0 C0.66 0.33 1.32 0.66 2 1 C0.79618552 3.49361571 -0.45428722 5.68143083 -2 8 C-2.41467826 11.80121737 -2.52577308 14.10847173 -0.5625 17.4375 C3.29305385 19.78844747 6.60480146 19.85021873 11 19 C15.20678787 17.09311692 18.97303128 14.50952895 22 11 C22.74386068 8.69011685 23.42190703 6.35684056 24 4 C25.9375 3.4375 25.9375 3.4375 28 3 C29 4 29 4 29.3125 6.3125 C28.89869686 9.87120698 27.67974057 10.68238654 25 13 C24.175 13.845625 23.35 14.69125 22.5 15.5625 C17.23699883 20.69392614 12.86293334 22.59337544 5.4375 23.375 C1.24104677 22.9172051 -0.78274535 21.69351552 -4 19 C-6.59036348 15.58542996 -6.43108741 12.16717829 -6 8 C-4.24505919 4.89960457 -2.51174333 2.51174333 0 0 Z " fill="#F3F0F9" transform="translate(307,54)"/>
<path d="M0 0 C0.66 0 1.32 0 2 0 C2 0.66 2 1.32 2 2 C6.455 1.505 6.455 1.505 11 1 C11.33 2.32 11.66 3.64 12 5 C11.34 5 10.68 5 10 5 C9.67 5.66 9.34 6.32 9 7 C8.67 6.01 8.34 5.02 8 4 C5.58063683 3.83750546 3.17218141 3.71902183 0.75 3.625 C0.06808594 3.57472656 -0.61382812 3.52445313 -1.31640625 3.47265625 C-3.61634637 3.3431629 -3.61634637 3.3431629 -7 4 C-9.65068206 6.68594389 -9.65068206 6.68594389 -11 10 C-10.43326199 13.2006714 -10.43326199 13.2006714 -9 16 C-8.67 16.99 -8.34 17.98 -8 19 C-5.03 19 -2.06 19 1 19 C0.67 20.32 0.34 21.64 0 23 C0 22.01 0 21.02 0 20 C-1.65 20.66 -3.3 21.32 -5 22 C-4.01 22.66 -3.02 23.32 -2 24 C-2 24.99 -2 25.98 -2 27 C-2.66 27 -3.32 27 -4 27 C-4 26.34 -4 25.68 -4 25 C-5.32 24.34 -6.64 23.68 -8 23 C-8 22.34 -8 21.68 -8 21 C-10.64 20.67 -13.28 20.34 -16 20 C-15.67 23.3 -15.34 26.6 -15 30 C-15.99 29.67 -16.98 29.34 -18 29 C-18.33 25.04 -18.66 21.08 -19 17 C-17.68 16.34 -16.36 15.68 -15 15 C-15 15.99 -15 16.98 -15 18 C-14.01 17.67 -13.02 17.34 -12 17 C-12 16.01 -12 15.02 -12 14 C-12.99 13.67 -13.98 13.34 -15 13 C-15 11.02 -15 9.04 -15 7 C-14.01 6.67 -13.02 6.34 -12 6 C-11.67 5.34 -11.34 4.68 -11 4 C-12.32 3.67 -13.64 3.34 -15 3 C-9.42567486 1.33748198 -5.6932495 0.81390635 0 2 C0 1.34 0 0.68 0 0 Z " fill="#02CDF3" transform="translate(187,44)"/>
<path d="M0 0 C2.64 0 5.28 0 8 0 C8.33 1.98 8.66 3.96 9 6 C13.455 6.99 13.455 6.99 18 8 C17.01 8.495 17.01 8.495 16 9 C16 11.31 16 13.62 16 16 C10.31524634 15.39523897 5.39251827 13.90812185 0 12 C0 8.04 0 4.08 0 0 Z " fill="#EBE5E3" transform="translate(238,157)"/>
<path d="M0 0 C2.64 0 5.28 0 8 0 C8 1.98 8 3.96 8 6 C11.3 6.66 14.6 7.32 18 8 C17.67 10.64 17.34 13.28 17 16 C2.81818182 13.81818182 2.81818182 13.81818182 1 12 C0.76572222 9.98405418 0.58663876 7.961526 0.4375 5.9375 C0.35371094 4.83277344 0.26992188 3.72804687 0.18359375 2.58984375 C0.09271484 1.30787109 0.09271484 1.30787109 0 0 Z " fill="#DCE3E8" transform="translate(308,157)"/>
<path d="M0 0 C6.27 0 12.54 0 19 0 C19 2.31 19 4.62 19 7 C22.3 7 25.6 7 29 7 C29 7.33 29 7.66 29 8 C19.43 8 9.86 8 0 8 C0 5.36 0 2.72 0 0 Z " fill="#D3DFE7" transform="translate(306,131)"/>
<path d="M0 0 C5.94 0 11.88 0 18 0 C18 2.31 18 4.62 18 7 C20.97 7 23.94 7 27 7 C27 8.65 27 10.3 27 12 C26.67 10.68 26.34 9.36 26 8 C25.2479126 8.00523682 24.4958252 8.01047363 23.72094727 8.01586914 C20.33480658 8.03657227 16.94867916 8.04963877 13.5625 8.0625 C11.78649414 8.07506836 11.78649414 8.07506836 9.97460938 8.08789062 C8.84990234 8.09111328 7.72519531 8.09433594 6.56640625 8.09765625 C5.00321655 8.10551147 5.00321655 8.10551147 3.40844727 8.11352539 C1 8 1 8 0 7 C0 4.69 0 2.38 0 0 Z " fill="#CFDDE6" transform="translate(307,146)"/>
<path d="M0 0 C0 6.6 0 13.2 0 20 C-5.20215023 17.02734272 -8.78475628 14.90681125 -13 11 C-13 10.34 -13 9.68 -13 9 C-11.05237399 7.37257193 -9.11158541 5.8635524 -7.0625 4.375 C-6.21655273 3.74464844 -6.21655273 3.74464844 -5.35351562 3.1015625 C-1.14928724 0 -1.14928724 0 0 0 Z " fill="#232C3D" transform="translate(477,142)"/>
<path d="M0 0 C3.80457136 1.48007485 5.24659112 3.44462588 7.3828125 6.8671875 C7.99253906 7.83527344 8.60226563 8.80335937 9.23046875 9.80078125 C9.85566406 10.81527344 10.48085938 11.82976563 11.125 12.875 C11.75792969 13.88175781 12.39085937 14.88851562 13.04296875 15.92578125 C18.04463882 23.92208181 18.04463882 23.92208181 20 28 C19.34 28.33 18.68 28.66 18 29 C16.05953963 26.27292725 14.12316837 23.54297568 12.1875 20.8125 C11.64029297 20.04357422 11.09308594 19.27464844 10.52929688 18.48242188 C9.99755859 17.73154297 9.46582031 16.98066406 8.91796875 16.20703125 C8.18743286 15.17799683 8.18743286 15.17799683 7.44213867 14.12817383 C5.87159524 11.81051222 4.44041924 9.40069874 3 7 C2.67 11.29 2.34 15.58 2 20 C1.01 20 0.02 20 -1 20 C-1.02888514 16.85418577 -1.04675923 13.70840531 -1.0625 10.5625 C-1.07087891 9.66466797 -1.07925781 8.76683594 -1.08789062 7.84179688 C-1.09111328 6.98779297 -1.09433594 6.13378906 -1.09765625 5.25390625 C-1.10551147 4.06776733 -1.10551147 4.06776733 -1.11352539 2.85766602 C-1 1 -1 1 0 0 Z " fill="#3B3F4D" transform="translate(246,46)"/>
<path d="M0 0 C6.27 0 12.54 0 19 0 C19 2.31 19 4.62 19 7 C12.73 7 6.46 7 0 7 C0 4.69 0 2.38 0 0 Z " fill="#FEFAF9" transform="translate(254,131)"/>
<path d="M0 0 C1.79133978 -0.05391993 3.58313899 -0.09275571 5.375 -0.125 C6.37273437 -0.14820313 7.37046875 -0.17140625 8.3984375 -0.1953125 C11 0 11 0 13 2 C13.25 5 13.25 5 13 8 C11 10 11 10 8.3984375 10.1953125 C7.40070313 10.17210937 6.40296875 10.14890625 5.375 10.125 C3.87066406 10.09792969 3.87066406 10.09792969 2.3359375 10.0703125 C1.56507813 10.04710937 0.79421875 10.02390625 0 10 C0 6.7 0 3.4 0 0 Z " fill="#7A1CEA" transform="translate(388,154)"/>
<path d="M0 0 C4 1.33333333 8 2.66666667 12 4 C11.62827241 6.60209311 10.921323 8.11644196 9.4375 10.3125 C6.64090087 12.24860709 5.99451847 12.15771825 2.75 11.75 C1.5125 11.5025 0.275 11.255 -1 11 C-1.02688151 9.35425434 -1.04634123 7.70838587 -1.0625 6.0625 C-1.07410156 5.14597656 -1.08570313 4.22945312 -1.09765625 3.28515625 C-1 1 -1 1 0 0 Z " fill="#3F9FB6" transform="translate(194,148)"/>
<path d="M0 0 C1.84276141 0.55282842 3.67482878 1.14160959 5.5 1.75 C5.02389341 6.74911924 3.46837781 9.72832683 0.5 13.75 C-3.56540996 12.39486335 -4.47300269 10.44203082 -6.5 6.75 C-6.42487133 4.12049656 -5.7293765 3.08259593 -4.25 0.9375 C-2.5 -0.25 -2.5 -0.25 0 0 Z " fill="#2DB1B3" transform="translate(174.5,139.25)"/>
<path d="M0 0 C0.18175781 0.84884766 0.18175781 0.84884766 0.3671875 1.71484375 C0.53476563 2.44832031 0.70234375 3.18179688 0.875 3.9375 C1.11863281 5.03384766 1.11863281 5.03384766 1.3671875 6.15234375 C1.82961523 8.20700294 1.82961523 8.20700294 4 9 C4.625 11.0625 4.625 11.0625 5 13 C3.68 13 2.36 13 1 13 C0.67 12.34 0.34 11.68 0 11 C-0.99 11.33 -1.98 11.66 -3 12 C-6.67396929 10.29742886 -8.55527654 8.80881639 -10 5 C-3.87096774 0 -3.87096774 0 0 0 Z " fill="#203B4C" transform="translate(171,49)"/>
<path d="M0 0 C5.20186922 0.5381244 8.90358688 1.30119563 14 3 C13.34 7.29 12.68 11.58 12 16 C6.8288885 11.45568989 3.55336892 5.84718632 0 0 Z " fill="#37A7B5" transform="translate(176,157)"/>
<path d="M0 0 C0.99 0 1.98 0 3 0 C4.71875 2.265625 4.71875 2.265625 6.5 5.25 C8.95923757 9.344218 8.95923757 9.344218 11.71875 13.234375 C13 15 13 15 13 17 C7.95193086 16.64008282 5.47760134 13.95601959 2.1875 10.4375 C1.68541016 9.91736328 1.18332031 9.39722656 0.66601562 8.86132812 C-0.56529127 7.5831143 -1.7839407 6.29272853 -3 5 C-1.6875 2.5 -1.6875 2.5 0 0 Z " fill="#34ABB5" transform="translate(173,158)"/>
<path d="M0 0 C1.423125 -0.061875 2.84625 -0.12375 4.3125 -0.1875 C5.51326172 -0.23970703 5.51326172 -0.23970703 6.73828125 -0.29296875 C9 0 9 0 10.80859375 1.34765625 C12 3 12 3 11.75 5.625 C11 8 11 8 10 9 C8.31391034 9.07205511 6.62499341 9.08386068 4.9375 9.0625 C4.01839844 9.05347656 3.09929687 9.04445312 2.15234375 9.03515625 C1.44207031 9.02355469 0.73179687 9.01195312 0 9 C0 6.03 0 3.06 0 0 Z " fill="#7E1CE9" transform="translate(388,140)"/>
<path d="M0 0 C0.25 6.625 0.25 6.625 -2 10 C-7.53846154 9.38461538 -7.53846154 9.38461538 -9.875 7.4375 C-10.24625 6.963125 -10.6175 6.48875 -11 6 C-10.06677104 2.77611813 -9.58700229 1.33984343 -6.625 -0.375 C-3.91676239 -1.01981848 -2.57614778 -0.95412881 0 0 Z " fill="#223243" transform="translate(197,65)"/>
<path d="M0 0 C1.49106457 2.98212913 1.11941467 5.71609658 1 9 C0 10 0 10 -3.3125 10.4375 C-7 10 -7 10 -9.4375 7 C-9.953125 6.01 -10.46875 5.02 -11 4 C-7.26280719 0.48264206 -5.13496308 -0.47767098 0 0 Z " fill="#213545" transform="translate(196,36)"/>
<path d="M0 0 C7.50769231 0.49230769 7.50769231 0.49230769 10 3.0625 C10.33 3.701875 10.66 4.34125 11 5 C10.01906046 7.45234885 9.31296172 8.7809268 7.125 10.3125 C4.62722642 11.12060322 3.42863795 10.9212075 1 10 C0 9 0 9 -0.09765625 6.93359375 C-0.08605469 6.10988281 -0.07445312 5.28617187 -0.0625 4.4375 C-0.05347656 3.61121094 -0.04445312 2.78492187 -0.03515625 1.93359375 C-0.02355469 1.29550781 -0.01195312 0.65742187 0 0 Z " fill="#223040" transform="translate(171,64)"/>
<path d="M0 0 C3.84177074 0.30329769 6.09427672 1.52475424 9 4 C7.79618552 6.49361571 6.54571278 8.68143083 5 11 C1.375 11.1875 1.375 11.1875 -2 11 C-2.05399736 9.54207116 -2.09279177 8.08357288 -2.125 6.625 C-2.15980469 5.40683594 -2.15980469 5.40683594 -2.1953125 4.1640625 C-2 2 -2 2 0 0 Z " fill="#223141" transform="translate(173,35)"/>
<path d="M0 0 C3.40312738 1.05875074 6.01353231 2.00902154 9 4 C8.8125 6.3125 8.8125 6.3125 8 9 C5.10451959 11.20970874 3.66842255 12 0 12 C-2.21538462 5.72307692 -2.21538462 5.72307692 -1.125 2.0625 C-0.75375 1.381875 -0.3825 0.70125 0 0 Z " fill="#213343" transform="translate(197,49)"/>
<path d="M0 0 C5.875 3.75 5.875 3.75 7 6 C5.76265016 7.03613033 4.50955363 8.05347802 3.25 9.0625 C2.55390625 9.63097656 1.8578125 10.19945312 1.140625 10.78515625 C-1 12 -1 12 -3.140625 11.93359375 C-5 11 -5 11 -7 7 C-4.69 4.69 -2.38 2.38 0 0 Z " fill="#116CAC" transform="translate(450,152)"/>
<path d="M0 0 C1.10408203 0.36931641 1.10408203 0.36931641 2.23046875 0.74609375 C2.23046875 5.46515563 0.94292671 7.01646406 -1.76953125 10.74609375 C-8.51953125 9.99609375 -8.51953125 9.99609375 -10.76953125 7.74609375 C-9.55993509 6.3744177 -8.32601937 5.02415766 -7.08203125 3.68359375 C-6.39753906 2.92949219 -5.71304688 2.17539063 -5.0078125 1.3984375 C-2.76953125 -0.25390625 -2.76953125 -0.25390625 0 0 Z " fill="#38A8B6" transform="translate(184.76953125,129.25390625)"/>
<path d="M0 0 C1.98 0 3.96 0 6 0 C6.33333333 2 6.66666667 4 7 6 C7.20625 7.0725 7.4125 8.145 7.625 9.25 C8 12 8 12 7 14 C4.68143083 15.54571278 2.49361571 16.79618552 0 18 C-0.6875 16.3125 -0.6875 16.3125 -1 14 C-0.2575 12.824375 -0.2575 12.824375 0.5 11.625 C2.42422701 8.25760274 1.95992052 6.67969533 1 3 C0.67 2.01 0.34 1.02 0 0 Z " fill="#03C5EA" transform="translate(189,48)"/>
<path d="M0 0 C2 1 4 2 6 3 C5.1875 4.9375 5.1875 4.9375 4 7 C3.01 7.33 2.02 7.66 1 8 C1 6.68 1 5.36 1 4 C-2.96 5.98 -2.96 5.98 -7 8 C-7 9.32 -7 10.64 -7 12 C-4.57327433 13.78969026 -4.57327433 13.78969026 -2 15 C-2.33 15.99 -2.66 16.98 -3 18 C-8.75 14.25 -8.75 14.25 -11 12 C-10.90769256 8.49231717 -10.24948044 7.24948044 -7.75 4.75 C-5.03650929 3.02323318 -3.16470757 2.36168087 0 2 C0 1.34 0 0.68 0 0 Z " fill="#05BADD" transform="translate(170,45)"/>
<path d="M0 0 C2.5625 1.5 2.5625 1.5 5 4 C5.15374792 6.87728254 4.61846819 9.14553142 4 12 C1.03 11.01 -1.94 10.02 -5 9 C-3.7508258 5.54074837 -2.32472205 2.85306797 0 0 Z " fill="#3AA0B1" transform="translate(189,133)"/>
<path d="M0 0 C1.15941038 3.47823115 0.70820884 5.45895578 0 9 C-4.92127034 9.16682272 -8.50343896 9.24828052 -13 7 C-9.17058011 3.67006966 -4.62477778 1.94675475 0 0 Z " fill="#36A9B5" transform="translate(191,148)"/>
<path d="M0 0 C0.66 0.33 1.32 0.66 2 1 C0.35 3.64 -1.3 6.28 -3 9 C-0.69 9.66 1.62 10.32 4 11 C4 11.66 4 12.32 4 13 C1.03 12.67 -1.94 12.34 -5 12 C-6.65 14.64 -8.3 17.28 -10 20 C-10.33 19.01 -10.66 18.02 -11 17 C-10.04504326 15.30712215 -9.0409066 13.64142963 -8 12 C-7.30420546 9.80869466 -7.30420546 9.80869466 -7 8 C-8.1446875 7.814375 -8.1446875 7.814375 -9.3125 7.625 C-12 7 -12 7 -15 5 C-11.37 5.33 -7.74 5.66 -4 6 C-2.68 4.02 -1.36 2.04 0 0 Z " fill="#263C4A" transform="translate(187,133)"/>
<path d="M0 0 C0 3.33333333 0 6.66666667 0 10 C-0.53625 9.7525 -1.0725 9.505 -1.625 9.25 C-4.24765578 8.70912468 -4.24765578 8.70912468 -6.8125 11 C-10 13 -10 13 -13.875 12.75 C-14.90625 12.5025 -15.9375 12.255 -17 12 C-17 11.01 -17 10.02 -17 9 C-16.113125 9.226875 -15.22625 9.45375 -14.3125 9.6875 C-10.37496048 10.05896599 -9.10775403 9.33081552 -6 7 C-5.34 6.34 -4.68 5.68 -4 5 C-4 5.66 -4 6.32 -4 7 C-3.34 7 -2.68 7 -2 7 C-2 6.01 -2 5.02 -2 4 C-3.32 3.34 -4.64 2.68 -6 2 C-2.25 0 -2.25 0 0 0 Z " fill="#05BBDF" transform="translate(187,64)"/>
<path d="M0 0 C6.75 0.75 6.75 0.75 9 3 C4.41845739 5.39542583 -0.0276578 7.50829734 -5 9 C-3.7508258 5.54074837 -2.32472205 2.85306797 0 0 Z " fill="#34A8B2" transform="translate(182,144)"/>
<path d="M0 0 C2.5625 0.1875 2.5625 0.1875 4.5625 2.1875 C4.00694444 6.74305556 4.00694444 6.74305556 2.5625 8.1875 C0.0625 8.3125 0.0625 8.3125 -2.4375 8.1875 C-3.4375 7.1875 -3.4375 7.1875 -3.5625 4.1875 C-3.39891479 0.26145498 -3.39891479 0.26145498 0 0 Z " fill="#01D1F7" transform="translate(183.4375,50.8125)"/>
<path d="M0 0 C4.39158329 1.4638611 4.87947433 3.97831338 7 8 C2.97007218 7.44687265 -1.02022924 6.8441938 -5 6 C-3.35 4.02 -1.7 2.04 0 0 Z " fill="#26B7B1" transform="translate(165,146)"/>
<path d="M0 0 C5.28 0 10.56 0 16 0 C14.68 1.65 13.36 3.3 12 5 C11.31405137 7.8785546 11.31405137 7.8785546 11.25 10.8125 C11.1675 12.524375 11.085 14.23625 11 16 C7.37 16 3.74 16 0 16 C0 15.67 0 15.34 0 15 C3.3 15 6.6 15 10 15 C10 10.38 10 5.76 10 1 C6.7 1 3.4 1 0 1 C0 0.67 0 0.34 0 0 Z " fill="#7549A5" transform="translate(595,144)"/>
<path d="M0 0 C0.99 0 1.98 0 3 0 C3 5.28 3 10.56 3 16 C2.01 15.34 1.02 14.68 0 14 C-0.29296875 10.7421875 -0.29296875 10.7421875 -0.1875 6.875 C-0.16042969 5.59367187 -0.13335937 4.31234375 -0.10546875 2.9921875 C-0.07066406 2.00476562 -0.03585937 1.01734375 0 0 Z " fill="#3F4451" transform="translate(260,46)"/>
<path d="M0 0 C3.39545706 1.03942563 4.80767555 2.24905547 7.0625 4.9375 C4.0625 4.9375 4.0625 4.9375 1.0625 2.9375 C-1.09024948 3.24590599 -1.09024948 3.24590599 -2.9375 3.9375 C-3.06125 5.236875 -3.185 6.53625 -3.3125 7.875 C-3.5234375 10.08984375 -3.5234375 10.08984375 -3.9375 11.9375 C-4.9275 12.4325 -4.9275 12.4325 -5.9375 12.9375 C-6.01871924 11.33417209 -6.07679134 9.72965974 -6.125 8.125 C-6.15980469 7.23167969 -6.19460937 6.33835937 -6.23046875 5.41796875 C-5.9375 2.9375 -5.9375 2.9375 -4.609375 1.109375 C-2.9375 -0.0625 -2.9375 -0.0625 0 0 Z " fill="#04C2E6" transform="translate(174.9375,33.0625)"/>
<path d="M0 0 C0.1875 3.375 0.1875 3.375 0 7 C-3 9 -3 9 -6 9 C-6.25 6.1875 -6.25 6.1875 -6 3 C-3.95959224 0.95959224 -2.91674756 0 0 0 Z " fill="#017AF5" transform="translate(487,36)"/>
<path d="M0 0 C1.875 0.3125 1.875 0.3125 4 1 C4.66 1.99 5.32 2.98 6 4 C7.32 4 8.64 4 10 4 C10.66 3.34 11.32 2.68 12 2 C12 5.3 12 8.6 12 12 C11.67 10.68 11.34 9.36 11 8 C10.113125 7.979375 9.22625 7.95875 8.3125 7.9375 C3.72001676 6.63774059 2.34657381 3.9767158 0 0 Z " fill="#4F535F" transform="translate(26,162)"/>
<path d="M0 0 C2.00720923 0.28674418 4.0085944 0.61866701 6 1 C4.50902342 4.7952131 2.24299151 6.61042731 -1 9 C-1.09765625 2.84765625 -1.09765625 2.84765625 -1 1 C-0.67 0.67 -0.34 0.34 0 0 Z " fill="#3C9AAF" transform="translate(192,160)"/>
<path d="M0 0 C0.66 0.33 1.32 0.66 2 1 C0.79618552 3.49361571 -0.45428722 5.68143083 -2 8 C-2.38499891 9.65549531 -2.72793135 11.3222433 -3 13 C-3.99 12.67 -4.98 12.34 -6 12 C-5.59791618 6.37082652 -3.71069698 3.99613521 0 0 Z " fill="#ECE6F5" transform="translate(307,54)"/>
<path d="M0 0 C1.65 0 3.3 0 5 0 C4.79375 0.721875 4.5875 1.44375 4.375 2.1875 C3.93818669 5.46359986 4.71139955 7.02011146 6 10 C5.67 10.66 5.34 11.32 5 12 C4.01 11.67 3.02 11.34 2 11 C2.33 9.68 2.66 8.36 3 7 C2.01 6.67 1.02 6.34 0 6 C0 4.02 0 2.04 0 0 Z " fill="#04C0E4" transform="translate(172,51)"/>
<path d="M0 0 C0.66 0.33 1.32 0.66 2 1 C2 1.99 2 2.98 2 4 C1.34 4 0.68 4 0 4 C0 4.66 0 5.32 0 6 C0.99 6.33 1.98 6.66 3 7 C2.34 8.98 1.68 10.96 1 13 C0.01 13 -0.98 13 -2 13 C-2 11 -2 11 -0.5 9.375 C-0.005 8.92125 0.49 8.4675 1 8 C0.01 7.67 -0.98 7.34 -2 7 C-1.125 1.125 -1.125 1.125 0 0 Z " fill="#595D68" transform="translate(541,154)"/>
<path d="M0 0 C0 3.33333333 0 6.66666667 0 10 C-1.32 9.01 -2.64 8.02 -4 7 C-3.34 7 -2.68 7 -2 7 C-2 6.01 -2 5.02 -2 4 C-3.32 3.34 -4.64 2.68 -6 2 C-2.25 0 -2.25 0 0 0 Z " fill="#0F8EAB" transform="translate(187,64)"/>
<path d="M0 0 C2 1 4 2 6 3 C5.1875 4.9375 5.1875 4.9375 4 7 C3.01 7.33 2.02 7.66 1 8 C1 6.68 1 5.36 1 4 C-0.32 3.34 -1.64 2.68 -3 2 C-2.01 2 -1.02 2 0 2 C0 1.34 0 0.68 0 0 Z " fill="#0D95B3" transform="translate(170,45)"/>
<path d="M0 0 C1.3125 2.0625 1.3125 2.0625 2 4 C-1.82097239 3.46930939 -4.06171403 2.50298434 -7 0 C-4.25509788 -1.37245106 -2.87939419 -0.93580311 0 0 Z " fill="#3F94AD" transform="translate(203,146)"/>
<path d="M0 0 C0.33 0 0.66 0 1 0 C1.36923077 5.53846154 1.36923077 5.53846154 -0.5 7.875 C-1.2425 8.431875 -1.2425 8.431875 -2 9 C-2.99 8.67 -3.98 8.34 -5 8 C-4.19185349 6.66402348 -3.37836819 5.331275 -2.5625 4 C-2.11003906 3.2575 -1.65757812 2.515 -1.19140625 1.75 C-0.79824219 1.1725 -0.40507812 0.595 0 0 Z " fill="#F8F6FB" transform="translate(346,66)"/>
<path d="M0 0 C0.66 0.33 1.32 0.66 2 1 C2 1.99 2 2.98 2 4 C0.04783565 5.95216435 -1.53199953 6.84826645 -4 8 C-4.33 6.68 -4.66 5.36 -5 4 C-4.360625 3.71125 -3.72125 3.4225 -3.0625 3.125 C-0.84793921 2.17176549 -0.84793921 2.17176549 0 0 Z " fill="#137B95" transform="translate(193,58)"/>
<path d="M0 0 C1.98 0 3.96 0 6 0 C5.67 1.65 5.34 3.3 5 5 C4.01 5 3.02 5 2 5 C1.34 3.35 0.68 1.7 0 0 Z " fill="#0E8FAC" transform="translate(189,48)"/>
<path d="M0 0 C4 3 4 3 4.390625 5.04296875 C4.26041667 7.02864583 4.13020833 9.01432292 4 11 C3.34 11 2.68 11 2 11 C1.34 7.37 0.68 3.74 0 0 Z " fill="#05BCE0" transform="translate(195,34)"/>
<path d="M0 0 C-2.64 1.65 -5.28 3.3 -8 5 C-8 4.01 -8 3.02 -8 2 C-4.90310319 -1.09689681 -4.48560889 -1.12140222 0 0 Z " fill="#03C7EC" transform="translate(169,49)"/>
<path d="M0 0 C2 1.375 2 1.375 4 3 C4 3.66 4 4.32 4 5 C2.35 5.33 0.7 5.66 -1 6 C-0.67 4.02 -0.34 2.04 0 0 Z " fill="#3B90A5" transform="translate(195,139)"/>
</svg>
